HIERARCHY
ROOT Hips
{
	OFFSET 0.000000 97.167313 0.000000
	CHANNELS 6 Xposition Yposition Zposition Xrotation Yrotation Zrotation
	JOINT Spine
	{
		OFFSET 0.000000 13.784798 0.064400
		CHANNELS 3 Xrotation Yrotation Zrotation
		JOINT Spine1
		{
			OFFSET 0.000000 12.037903 0.404700
			CHANNELS 3 Xrotation Yrotation Zrotation
			JOINT Spine2
			{
				OFFSET 0.000000 17.795601 0.420200
				CHANNELS 3 Xrotation Yrotation Zrotation
				JOINT Neck
				{
					OFFSET 0.000000 39.131302 11.954600
					CHANNELS 3 Xrotation Yrotation Zrotation
					JOINT Head
					{
						OFFSET 0.000000 14.456192 15.627699
						CHANNELS 3 Xrotation Yrotation Zrotation
						JOINT HeadTop_End
						{
							OFFSET 0.000000 15.703506 7.603401
							CHANNELS 3 Xrotation Yrotation Zrotation
							End Site
							{
								OFFSET 0.000000 17.447403 0.000000
							}
						}
					}
				}
				JOINT LeftShoulder
				{
					OFFSET 17.399500 24.608795 1.168800
					CHANNELS 3 Xrotation Yrotation Zrotation
					JOINT LeftArm
					{
						OFFSET 18.980635 5.765305 1.818600
						CHANNELS 3 Xrotation Yrotation Zrotation
						JOINT LeftForeArm
						{
							OFFSET 49.290169 0.000000 0.000000
							CHANNELS 3 Xrotation Yrotation Zrotation
							JOINT LeftHand
							{
								OFFSET 31.562012 0.000000 0.000000
								CHANNELS 3 Xrotation Yrotation Zrotation
								JOINT LeftHandThumb1
								{
									OFFSET 6.133995 -4.388519 7.076070
									CHANNELS 3 Xrotation Yrotation Zrotation
									JOINT LeftHandThumb2
									{
										OFFSET 6.037666 -3.485840 3.485847
										CHANNELS 3 Xrotation Yrotation Zrotation
										JOINT LeftHandThumb3
										{
											OFFSET 6.496506 -3.750763 3.750761
											CHANNELS 3 Xrotation Yrotation Zrotation
											JOINT LeftHandThumb4
											{
												OFFSET 5.616882 -3.242905 3.242910
												CHANNELS 3 Xrotation Yrotation Zrotation
												End Site
												{
													OFFSET -1.254608 7.132141 0.375429
												}
											}
										}
									}
								}
								JOINT LeftHandPinky1
								{
									OFFSET 18.920792 -0.453171 -11.426712
									CHANNELS 3 Xrotation Yrotation Zrotation
									JOINT LeftHandPinky2
									{
										OFFSET 4.919586 0.000000 0.000000
										CHANNELS 3 Xrotation Yrotation Zrotation
										JOINT LeftHandPinky3
										{
											OFFSET 5.233047 0.000000 0.000000
											CHANNELS 3 Xrotation Yrotation Zrotation
											JOINT LeftHandPinky4
											{
												OFFSET 5.571716 0.000000 0.000000
												CHANNELS 3 Xrotation Yrotation Zrotation
												End Site
												{
													OFFSET -3.459808 4.342407 -0.466164
												}
											}
										}
									}
								}
								JOINT LeftHandRing1
								{
									OFFSET 22.726120 -0.094986 -6.500475
									CHANNELS 3 Xrotation Yrotation Zrotation
									JOINT LeftHandRing2
									{
										OFFSET 6.408615 0.000000 0.000000
										CHANNELS 3 Xrotation Yrotation Zrotation
										JOINT LeftHandRing3
										{
											OFFSET 6.150223 0.000000 0.000000
											CHANNELS 3 Xrotation Yrotation Zrotation
											JOINT LeftHandRing4
											{
												OFFSET 6.145386 0.000000 0.000000
												CHANNELS 3 Xrotation Yrotation Zrotation
												End Site
												{
													OFFSET -3.671402 4.923981 -0.202372
												}
											}
										}
									}
								}
								JOINT LeftHandMiddle1
								{
									OFFSET 23.373947 0.000000 0.000001
									CHANNELS 3 Xrotation Yrotation Zrotation
									JOINT LeftHandMiddle2
									{
										OFFSET 6.996567 0.000000 0.000000
										CHANNELS 3 Xrotation Yrotation Zrotation
										JOINT LeftHandMiddle3
										{
											OFFSET 7.015945 0.000000 0.000000
											CHANNELS 3 Xrotation Yrotation Zrotation
											JOINT LeftHandMiddle4
											{
												OFFSET 7.721573 0.000000 0.000000
												CHANNELS 3 Xrotation Yrotation Zrotation
												End Site
												{
													OFFSET -4.651108 6.158463 0.251582
												}
											}
										}
									}
								}
								JOINT LeftHandIndex1
								{
									OFFSET 21.310577 -0.490082 6.209344
									CHANNELS 3 Xrotation Yrotation Zrotation
									JOINT LeftHandIndex2
									{
										OFFSET 7.536453 0.000000 0.000000
										CHANNELS 3 Xrotation Yrotation Zrotation
										JOINT LeftHandIndex3
										{
											OFFSET 7.512344 0.000000 0.000000
											CHANNELS 3 Xrotation Yrotation Zrotation
											JOINT LeftHandIndex4
											{
												OFFSET 10.212402 0.000000 0.000001
												CHANNELS 3 Xrotation Yrotation Zrotation
												End Site
												{
													OFFSET -5.180801 8.690506 1.388433
												}
											}
										}
									}
								}
							}
						}
					}
				}
				JOINT RightShoulder
				{
					OFFSET -17.399500 24.608795 1.168800
					CHANNELS 3 Xrotation Yrotation Zrotation
					JOINT RightArm
					{
						OFFSET -18.980635 5.765305 1.818600
						CHANNELS 3 Xrotation Yrotation Zrotation
						JOINT RightForeArm
						{
							OFFSET -49.290169 0.000000 0.000000
							CHANNELS 3 Xrotation Yrotation Zrotation
							JOINT RightHand
							{
								OFFSET -31.562012 0.000000 0.000000
								CHANNELS 3 Xrotation Yrotation Zrotation
								JOINT RightHandThumb1
								{
									OFFSET -6.133995 -4.388519 7.076070
									CHANNELS 3 Xrotation Yrotation Zrotation
									JOINT RightHandThumb2
									{
										OFFSET -6.037666 -3.485840 3.485847
										CHANNELS 3 Xrotation Yrotation Zrotation
										JOINT RightHandThumb3
										{
											OFFSET -6.496506 -3.750763 3.750761
											CHANNELS 3 Xrotation Yrotation Zrotation
											JOINT RightHandThumb4
											{
												OFFSET -5.616882 -3.242905 3.242910
												CHANNELS 3 Xrotation Yrotation Zrotation
												End Site
												{
													OFFSET 1.254608 7.132141 0.375429
												}
											}
										}
									}
								}
								JOINT RightHandIndex1
								{
									OFFSET -21.310577 -0.490082 6.209344
									CHANNELS 3 Xrotation Yrotation Zrotation
									JOINT RightHandIndex2
									{
										OFFSET -7.536453 0.000000 0.000000
										CHANNELS 3 Xrotation Yrotation Zrotation
										JOINT RightHandIndex3
										{
											OFFSET -7.512344 0.000000 0.000000
											CHANNELS 3 Xrotation Yrotation Zrotation
											JOINT RightHandIndex4
											{
												OFFSET -10.212402 0.000000 0.000001
												CHANNELS 3 Xrotation Yrotation Zrotation
												End Site
												{
													OFFSET 5.180801 8.690506 1.388433
												}
											}
										}
									}
								}
								JOINT RightHandMiddle1
								{
									OFFSET -23.373947 0.000000 0.000001
									CHANNELS 3 Xrotation Yrotation Zrotation
									JOINT RightHandMiddle2
									{
										OFFSET -6.996567 0.000000 0.000000
										CHANNELS 3 Xrotation Yrotation Zrotation
										JOINT RightHandMiddle3
										{
											OFFSET -7.015945 0.000000 0.000000
											CHANNELS 3 Xrotation Yrotation Zrotation
											JOINT RightHandMiddle4
											{
												OFFSET -7.721573 0.000000 0.000000
												CHANNELS 3 Xrotation Yrotation Zrotation
												End Site
												{
													OFFSET 4.651108 6.158463 0.251582
												}
											}
										}
									}
								}
								JOINT RightHandRing1
								{
									OFFSET -22.726120 -0.094986 -6.500475
									CHANNELS 3 Xrotation Yrotation Zrotation
									JOINT RightHandRing2
									{
										OFFSET -6.408615 0.000000 0.000000
										CHANNELS 3 Xrotation Yrotation Zrotation
										JOINT RightHandRing3
										{
											OFFSET -6.150223 0.000000 0.000000
											CHANNELS 3 Xrotation Yrotation Zrotation
											JOINT RightHandRing4
											{
												OFFSET -6.145386 0.000000 0.000000
												CHANNELS 3 Xrotation Yrotation Zrotation
												End Site
												{
													OFFSET 3.671402 4.923981 -0.202372
												}
											}
										}
									}
								}
								JOINT RightHandPinky1
								{
									OFFSET -18.920792 -0.453171 -11.426712
									CHANNELS 3 Xrotation Yrotation Zrotation
									JOINT RightHandPinky2
									{
										OFFSET -4.919586 0.000000 0.000000
										CHANNELS 3 Xrotation Yrotation Zrotation
										JOINT RightHandPinky3
										{
											OFFSET -5.233047 0.000000 0.000000
											CHANNELS 3 Xrotation Yrotation Zrotation
											JOINT RightHandPinky4
											{
												OFFSET -5.571716 0.000000 0.000000
												CHANNELS 3 Xrotation Yrotation Zrotation
												End Site
												{
													OFFSET 3.459808 4.342407 -0.466164
												}
											}
										}
									}
								}
							}
						}
					}
				}
			}
		}
	}
	JOINT LeftUpLeg
	{
		OFFSET 19.899099 -7.885101 -3.429500
		CHANNELS 3 Xrotation Yrotation Zrotation
		JOINT LeftLeg
		{
			OFFSET 1.745560 -36.997807 10.304700
			CHANNELS 3 Xrotation Yrotation Zrotation
			JOINT LeftFoot
			{
				OFFSET -1.745558 -29.803308 -13.615400
				CHANNELS 3 Xrotation Yrotation Zrotation
				JOINT LeftToeBase
				{
					OFFSET 1.181900 -18.539904 15.226099
					CHANNELS 3 Xrotation Yrotation Zrotation
					JOINT LeftToe_End
					{
						OFFSET -0.863701 1.402801 16.534700
						CHANNELS 3 Xrotation Yrotation Zrotation
						End Site
						{
							OFFSET 0.000000 16.616566 0.000000
						}
					}
				}
			}
		}
	}
	JOINT RightUpLeg
	{
		OFFSET -19.899099 -7.885101 -3.429500
		CHANNELS 3 Xrotation Yrotation Zrotation
		JOINT RightLeg
		{
			OFFSET -1.745560 -36.997807 10.304700
			CHANNELS 3 Xrotation Yrotation Zrotation
			JOINT RightFoot
			{
				OFFSET 1.745558 -29.803308 -13.615400
				CHANNELS 3 Xrotation Yrotation Zrotation
				JOINT RightToeBase
				{
					OFFSET -1.181900 -18.539904 15.226099
					CHANNELS 3 Xrotation Yrotation Zrotation
					JOINT RightToe_End
					{
						OFFSET 0.863701 1.402801 16.534700
						CHANNELS 3 Xrotation Yrotation Zrotation
						End Site
						{
							OFFSET 0.000000 16.616566 0.000000
						}
					}
				}
			}
		}
	}
}
MOTION
Frames: 4
Frame Time: 0.033333
-0.272846 93.512161 3.286904 3.816362 -3.712381 -0.141318 0.169932 0.330112 -0.028376 0.511369 0.555629 -0.149995 0.508119 0.557000 -0.156049 -12.568423 -1.447142 2.637516 10.197520 3.160634 -2.584440 -0.000000 -0.000000 0.000000 1.604993 -11.385829 -9.553342 4.329340 -15.663041 -64.423020 -0.000000 -12.874666 -0.000029 1.693533 -1.937931 -8.457366 0.699759 -6.020125 19.223926 19.074669 26.512414 -1.026341 3.271079 -0.981144 3.963629 -0.000001 0.000001 -0.000002 3.603271 12.761705 -45.581288 0.673747 2.729583 -27.725818 0.090006 1.024032 -10.045309 -0.000002 0.000001 -0.000000 3.090047 8.505080 -34.940365 1.098180 3.416399 -35.630235 0.533262 2.443976 -24.613773 0.000002 -0.000004 -0.000000 2.489867 8.739282 -25.419365 1.496299 3.911578 -41.853965 0.477050 2.317462 -23.260529 -0.000000 -0.000002 0.000001 0.460235 4.491400 -23.662328 0.883083 3.094841 -31.844203 0.339549 1.967237 -19.583699 -0.000000 0.000003 0.000002 2.087552 14.855750 10.815213 -4.515093 3.403431 66.314607 0.000004 7.534549 -0.000043 10.827034 0.053678 8.057297 -13.495591 -11.552040 -5.371134 13.666584 -20.582669 -6.820324 3.145864 -4.142412 -22.213556 -0.000000 -0.000001 -0.000000 0.246052 -3.262774 18.902298 0.589428 -2.269662 29.112633 0.172148 -1.255806 15.610688 0.000004 -0.000005 0.000001 -0.702541 -1.215800 21.259778 0.924248 -2.786656 36.691848 0.558016 -2.212356 28.309421 -0.000001 0.000002 -0.000003 -0.941534 -2.664824 38.529244 0.358960 -1.794605 22.620033 0.313731 -1.682008 21.129354 -0.000001 0.000000 -0.000005 -2.260387 -1.124633 39.408129 0.612406 -2.310393 29.687608 0.130087 -1.094181 13.559640 -0.000000 0.000001 0.000004 -7.378904 12.343166 13.583168 9.179913 2.026085 0.556465 -4.413105 3.603360 -12.442451 0.297028 0.002137 -0.561058 0.000000 0.000000 -0.000000 -11.028848 -8.003227 -11.324372 8.530272 3.186986 -2.003520 -1.294980 -2.305640 12.284643 0.138338 -0.003656 0.260424 -0.000000 0.000001 -0.000000 
-0.295260 93.348663 2.979941 3.932821 -3.828609 -0.127977 0.304412 0.336851 -0.030461 0.739135 0.564630 -0.173898 0.735916 0.566561 -0.179759 -13.023463 -1.430190 2.557676 9.439430 3.102698 -2.583589 -0.000000 -0.000000 0.000000 1.559808 -11.722494 -9.803988 3.326610 -15.782639 -63.368794 0.000016 -13.950086 0.000010 0.992778 -2.335426 -6.398569 0.699764 -6.020123 19.223923 19.485548 27.133698 -1.459071 3.146138 -1.350051 4.531322 0.000003 -0.000001 0.000000 3.576435 12.700670 -45.745308 0.674058 2.730164 -27.732158 0.091419 1.032006 -10.124327 -0.000000 -0.000000 -0.000001 3.068559 8.463754 -35.048870 1.094586 3.411387 -35.569986 0.537323 2.452797 -24.708655 0.000003 -0.000001 0.000005 2.570828 8.777964 -26.166677 1.502848 3.918862 -41.949984 0.477047 2.317454 -23.260539 -0.000000 -0.000003 0.000001 0.422656 4.414379 -24.217877 0.892247 3.109527 -32.013431 0.320284 1.912260 -19.014629 -0.000001 -0.000000 -0.000001 2.008400 15.231528 11.002826 -2.108968 4.187921 65.701038 -0.000001 11.709485 0.000019 9.009455 -0.878723 6.504834 -13.495585 -11.552042 -5.371133 14.799464 -22.243413 -5.743272 3.142920 -4.001381 -22.195000 0.000005 -0.000002 0.000003 0.220885 -3.141886 19.543995 0.611386 -2.308609 29.662183 0.171822 -1.254627 15.595617 -0.000002 -0.000001 -0.000001 -0.870777 -0.926227 22.177826 0.929669 -2.793921 36.803385 0.557431 -2.211268 28.294250 -0.000001 0.000000 -0.000008 -1.267737 -2.378164 39.735035 0.359844 -1.796726 22.648291 0.312208 -1.678066 21.077431 0.000003 -0.000000 -0.000003 -2.676258 -0.759273 40.312173 0.596872 -2.282955 29.299941 0.127382 -1.082862 13.416727 0.000002 -0.000001 -0.000001 -8.082882 12.116347 13.635898 10.046916 2.282501 0.631697 -4.650806 3.528115 -12.276778 0.184424 0.000826 -0.349964 -0.000000 -0.000000 0.000000 -11.738483 -7.706929 -11.286111 9.196934 3.192899 -2.082870 -1.347389 -2.357316 12.252544 0.146516 -0.004134 0.275472 0.000000 -0.000000 -0.000000 
-0.293655 92.999512 2.466176 4.148349 -3.919133 -0.149894 0.426592 0.360441 -0.045621 0.943639 0.605215 -0.169990 0.940392 0.607433 -0.176099 -13.483358 -1.402735 2.459273 8.767597 3.053099 -2.528368 -0.000000 -0.000000 0.000000 1.539846 -11.882543 -9.894634 3.259579 -16.219551 -62.272679 0.000005 -16.424404 0.000024 0.166385 -2.963446 -4.573657 0.699761 -6.020123 19.223924 19.721888 27.515675 -1.726129 3.059198 -1.562391 4.876887 0.000002 -0.000002 -0.000001 3.499862 12.626592 -45.640956 0.669664 2.721804 -27.639861 0.092315 1.037002 -10.173766 0.000002 0.000005 -0.000003 3.023585 8.396980 -35.084301 1.094623 3.411445 -35.570601 0.540763 2.460276 -24.788992 0.000002 0.000002 0.000003 2.618988 8.776869 -26.754276 1.508938 3.925601 -42.038988 0.477042 2.317461 -23.260529 0.000001 -0.000000 0.000002 0.369733 4.307383 -24.687738 0.899384 3.120917 -32.144909 0.305819 1.869777 -18.576113 -0.000002 0.000001 0.000001 1.971371 15.441922 10.952539 -0.285725 5.203875 65.061814 0.000013 15.070794 -0.000021 7.005306 -1.339972 4.944976 -13.495591 -11.552044 -5.371132 15.408184 -23.090172 -5.161057 3.133477 -3.886140 -22.225166 0.000002 -0.000001 0.000002 0.216628 -3.131147 20.340530 0.629852 -2.340705 30.117460 0.171584 -1.253791 15.585039 -0.000001 -0.000001 -0.000004 -0.993024 -0.750099 22.938424 0.933924 -2.799593 36.890654 0.556860 -2.210229 28.279406 0.000001 -0.000000 -0.000004 -1.516252 -2.184990 40.696524 0.361511 -1.800735 22.701669 0.311916 -1.677297 21.067360 0.000002 -0.000001 -0.000005 -2.982839 -0.508877 40.987180 0.588514 -2.268029 29.089625 0.125134 -1.073416 13.297495 0.000000 -0.000001 0.000000 -9.353410 11.766701 13.916568 11.524520 2.431248 0.576763 -5.033124 3.540959 -12.260169 0.165667 0.000679 -0.314521 -0.000000 0.000002 0.000000 -12.998926 -7.241955 -11.262770 10.499586 3.128323 -2.149326 -1.564974 -2.390578 12.160599 0.183287 -0.005114 0.344838 -0.000000 0.000000 0.000000 
-0.298122 92.191345 1.795769 4.606318 -4.043337 -0.185045 0.570575 0.384713 -0.063098 1.184295 0.648497 -0.163237 1.180985 0.651162 -0.167023 -13.998784 -1.342714 2.343738 8.227689 3.094182 -2.398916 -0.000000 0.000000 0.000000 1.549318 -11.939100 -9.745280 3.925869 -16.807702 -61.044044 -0.000009 -20.436732 -0.000024 -1.055865 -3.441725 -3.120930 0.699768 -6.020124 19.223921 19.859047 27.783932 -1.909009 3.004491 -1.697386 5.116422 0.000003 -0.000001 -0.000003 3.372798 12.527447 -45.319313 0.661732 2.706636 -27.472411 0.092903 1.040226 -10.205908 -0.000000 -0.000003 0.000001 2.950991 8.299097 -35.040551 1.095635 3.412855 -35.587659 0.543718 2.466650 -24.857898 0.000001 0.000004 0.000005 2.639551 8.737185 -27.255023 1.513979 3.931171 -42.112416 0.477042 2.317445 -23.260530 0.000001 0.000001 0.000004 0.311060 4.192981 -25.136565 0.905924 3.131280 -32.264936 0.295306 1.838233 -18.251326 -0.000006 0.000000 -0.000002 1.983903 15.499743 10.563549 1.112664 6.484017 64.368775 0.000003 18.586734 0.000012 3.620929 -0.627365 3.296841 -13.495589 -11.552044 -5.371134 15.619480 -23.369161 -4.963504 3.134993 -3.865165 -22.209893 0.000001 -0.000001 -0.000000 0.213681 -3.128539 20.995889 0.636527 -2.352183 30.280711 0.171142 -1.252205 15.564731 -0.000003 0.000002 0.000002 -1.118476 -0.559054 23.562768 0.935527 -2.801722 36.923412 0.555772 -2.208199 28.251286 0.000001 0.000002 -0.000009 -1.765648 -1.987704 41.485736 0.363972 -1.806599 22.779806 0.310655 -1.674027 21.024186 -0.000001 -0.000001 -0.000005 -3.360624 -0.171912 41.556418 0.583826 -2.259599 28.971074 0.123298 -1.065608 13.198999 -0.000000 -0.000000 0.000006 -11.722142 11.272094 14.554134 14.545460 2.361569 0.280756 -6.119369 3.623834 -12.177998 0.168214 0.000711 -0.319530 -0.000000 -0.000000 0.000000 -15.365093 -6.609040 -11.374379 13.294437 3.131957 -2.075928 -2.414702 -2.430422 11.958323 0.227076 -0.006100 0.427546 0.000000 -0.000000 -0.000000 
